<svg xmlns="http://www.w3.org/2000/svg" width="1952.761" height="1080"><defs><linearGradient id="a" x1=".032" y1=".043" x2=".418" y2=".722" gradientUnits="objectBoundingBox"><stop offset="0" stop-color="#080647"/><stop offset="1" stop-color="#261d84"/></linearGradient><linearGradient id="b" x1="4.134" y1="3.41" x2="4.134" y2="2.409" gradientUnits="objectBoundingBox"><stop offset="0" stop-opacity=".122"/><stop offset=".55" stop-opacity=".09"/><stop offset="1" stop-opacity=".02"/></linearGradient><linearGradient id="c" x1=".5" y1="1" x2=".5" gradientUnits="objectBoundingBox"><stop offset="0" stop-color="gray" stop-opacity=".251"/><stop offset=".54" stop-color="gray" stop-opacity=".122"/><stop offset="1" stop-color="gray" stop-opacity=".102"/></linearGradient></defs><g data-name="Group 3529"><g data-name="Group 3527" stroke="#707070"><g data-name="Rectangle 17444" fill="#0d0151"><path d="M17.212 0h1920v1080h-1920z" stroke="none"/><path fill="none" d="M17.712.5h1919v1079h-1919z"/></g><g data-name="Rectangle 282" fill="url(#a)" transform="translate(17.212)"><path d="M0 0h1920v1080H0z" stroke="none"/><path fill="none" d="M.5.5h1919v1079H.5z"/></g></g><g data-name="Group 81" transform="translate(735.212 10459)"><circle data-name="Ellipse 77" cx="5" cy="5" r="5" transform="translate(609.788 -10201.456)" fill="#f2f2f2"/><circle data-name="Ellipse 85" cx="5" cy="5" r="5" transform="translate(486.788 -10320.456)" fill="#f2f2f2"/><circle data-name="Ellipse 78" cx="2" cy="2" r="2" transform="translate(455.788 -10033.456)" fill="#f2f2f2"/><circle data-name="Ellipse 86" cx="2" cy="2" r="2" transform="translate(329.788 -10127.456)" fill="#f2f2f2"/><circle data-name="Ellipse 79" cx="2" cy="2" r="2" transform="translate(750.788 -9939.456)" fill="#f2f2f2"/><circle data-name="Ellipse 90" cx="2" cy="2" r="2" transform="translate(624.788 -10033.456)" fill="#f2f2f2"/><circle data-name="Ellipse 81" cx="2" cy="2" r="2" transform="translate(1009.788 -10035.456)" fill="#f2f2f2"/><circle data-name="Ellipse 91" cx="2" cy="2" r="2" transform="translate(883.788 -10129.456)" fill="#f2f2f2"/><circle data-name="Ellipse 82" cx="2" cy="2" r="2" transform="translate(367.788 -10014.456)" fill="#f2f2f2"/><circle data-name="Ellipse 88" cx="2" cy="2" r="2" transform="translate(241.788 -10108.456)" fill="#f2f2f2"/><circle data-name="Ellipse 83" cx="2" cy="2" r="2" transform="translate(695.788 -10054.456)" fill="#f2f2f2"/><circle data-name="Ellipse 87" cx="2" cy="2" r="2" transform="translate(569.788 -10148.456)" fill="#f2f2f2"/><circle data-name="Ellipse 84" cx="2" cy="2" r="2" transform="translate(761.788 -10198.456)" fill="#f2f2f2"/><circle data-name="Ellipse 89" cx="2" cy="2" r="2" transform="translate(635.788 -10292.456)" fill="#f2f2f2"/><path data-name="Rectangle 306" fill="#f2f2f2" d="M404.788-10113.456h2v1h-2z"/><path data-name="Rectangle 320" fill="#f2f2f2" d="M278.788-10207.456h2v1h-2z"/><path data-name="Rectangle 307" fill="#f2f2f2" d="M548.788-9999.456h2v1h-2z"/><path data-name="Rectangle 321" fill="#f2f2f2" d="M422.788-10093.456h2v1h-2z"/><path data-name="Rectangle 308" fill="#f2f2f2" d="M930.788-9955.456h2v1h-2z"/><path data-name="Rectangle 323" fill="#f2f2f2" d="M804.788-10049.456h2v1h-2z"/><path data-name="Rectangle 309" fill="#f2f2f2" d="M811.788-10108.456h2v1h-2z"/><path data-name="Rectangle 322" fill="#f2f2f2" d="M685.788-10202.456h2v1h-2z"/><path data-name="Path 263" d="M1033.55-9851.064s-.915-3.027-2.886-4.083" fill="#ff6584"/><path data-name="Path 272" d="M907.55-9945.064s-.915-3.027-2.886-4.083" fill="#ff6584"/><path data-name="Path 265" d="M1056.55-9845.064s-.915-3.027-2.886-4.083" fill="#ff6584"/><path data-name="Path 273" d="M930.55-9939.064s-.915-3.027-2.886-4.083" fill="#ff6584"/><path data-name="Path 266" d="M1050.55-9827.064s-.915-3.027-2.886-4.083" fill="#ff6584"/><path data-name="Path 274" d="M924.55-9921.064s-.915-3.027-2.886-4.083" fill="#ff6584"/></g><g data-name="Group 83" transform="translate(-241.788 10366)"><circle data-name="Ellipse 77" cx="5" cy="5" r="5" transform="translate(609.788 -10201.456)" fill="#f2f2f2"/><circle data-name="Ellipse 85" cx="5" cy="5" r="5" transform="translate(486.788 -10320.456)" fill="#f2f2f2"/><circle data-name="Ellipse 78" cx="2" cy="2" r="2" transform="translate(455.788 -10033.456)" fill="#f2f2f2"/><circle data-name="Ellipse 86" cx="2" cy="2" r="2" transform="translate(329.788 -10127.456)" fill="#f2f2f2"/><circle data-name="Ellipse 79" cx="2" cy="2" r="2" transform="translate(750.788 -9939.456)" fill="#f2f2f2"/><circle data-name="Ellipse 90" cx="2" cy="2" r="2" transform="translate(624.788 -10033.456)" fill="#f2f2f2"/><circle data-name="Ellipse 81" cx="2" cy="2" r="2" transform="translate(1009.788 -10035.456)" fill="#f2f2f2"/><circle data-name="Ellipse 91" cx="2" cy="2" r="2" transform="translate(883.788 -10129.456)" fill="#f2f2f2"/><circle data-name="Ellipse 82" cx="2" cy="2" r="2" transform="translate(367.788 -10014.456)" fill="#f2f2f2"/><circle data-name="Ellipse 88" cx="2" cy="2" r="2" transform="translate(241.788 -10108.456)" fill="#f2f2f2"/><circle data-name="Ellipse 83" cx="2" cy="2" r="2" transform="translate(695.788 -10054.456)" fill="#f2f2f2"/><circle data-name="Ellipse 87" cx="2" cy="2" r="2" transform="translate(569.788 -10148.456)" fill="#f2f2f2"/><circle data-name="Ellipse 84" cx="2" cy="2" r="2" transform="translate(761.788 -10198.456)" fill="#f2f2f2"/><circle data-name="Ellipse 89" cx="2" cy="2" r="2" transform="translate(635.788 -10292.456)" fill="#f2f2f2"/><path data-name="Rectangle 306" fill="#f2f2f2" d="M404.788-10113.456h2v1h-2z"/><path data-name="Rectangle 320" fill="#f2f2f2" d="M278.788-10207.456h2v1h-2z"/><path data-name="Rectangle 307" fill="#f2f2f2" d="M548.788-9999.456h2v1h-2z"/><path data-name="Rectangle 321" fill="#f2f2f2" d="M422.788-10093.456h2v1h-2z"/><path data-name="Rectangle 308" fill="#f2f2f2" d="M930.788-9955.456h2v1h-2z"/><path data-name="Rectangle 323" fill="#f2f2f2" d="M804.788-10049.456h2v1h-2z"/><path data-name="Rectangle 309" fill="#f2f2f2" d="M811.788-10108.456h2v1h-2z"/><path data-name="Rectangle 322" fill="#f2f2f2" d="M685.788-10202.456h2v1h-2z"/><path data-name="Path 263" d="M1033.55-9851.064s-.915-3.027-2.886-4.083" fill="#ff6584"/><path data-name="Path 272" d="M907.55-9945.064s-.915-3.027-2.886-4.083" fill="#ff6584"/><path data-name="Path 265" d="M1056.55-9845.064s-.915-3.027-2.886-4.083" fill="#ff6584"/><path data-name="Path 273" d="M930.55-9939.064s-.915-3.027-2.886-4.083" fill="#ff6584"/><path data-name="Path 266" d="M1050.55-9827.064s-.915-3.027-2.886-4.083" fill="#ff6584"/><path data-name="Path 274" d="M924.55-9921.064s-.915-3.027-2.886-4.083" fill="#ff6584"/></g><g data-name="Group 82" transform="translate(896.212 10678)"><circle data-name="Ellipse 77" cx="5" cy="5" r="5" transform="translate(609.788 -10201.456)" fill="#f2f2f2"/><circle data-name="Ellipse 85" cx="5" cy="5" r="5" transform="translate(483.788 -10295.456)" fill="#f2f2f2"/><circle data-name="Ellipse 78" cx="2" cy="2" r="2" transform="translate(455.788 -10033.456)" fill="#f2f2f2"/><circle data-name="Ellipse 86" cx="2" cy="2" r="2" transform="translate(329.788 -10127.456)" fill="#f2f2f2"/><circle data-name="Ellipse 79" cx="2" cy="2" r="2" transform="translate(750.788 -9939.456)" fill="#f2f2f2"/><circle data-name="Ellipse 90" cx="2" cy="2" r="2" transform="translate(624.788 -10033.456)" fill="#f2f2f2"/><circle data-name="Ellipse 81" cx="2" cy="2" r="2" transform="translate(1009.788 -10035.456)" fill="#f2f2f2"/><circle data-name="Ellipse 91" cx="2" cy="2" r="2" transform="translate(883.788 -10129.456)" fill="#f2f2f2"/><circle data-name="Ellipse 82" cx="2" cy="2" r="2" transform="translate(367.788 -10014.456)" fill="#f2f2f2"/><circle data-name="Ellipse 88" cx="2" cy="2" r="2" transform="translate(241.788 -10108.456)" fill="#f2f2f2"/><circle data-name="Ellipse 83" cx="2" cy="2" r="2" transform="translate(695.788 -10054.456)" fill="#f2f2f2"/><circle data-name="Ellipse 87" cx="2" cy="2" r="2" transform="translate(569.788 -10148.456)" fill="#f2f2f2"/><circle data-name="Ellipse 84" cx="2" cy="2" r="2" transform="translate(761.788 -10198.456)" fill="#f2f2f2"/><circle data-name="Ellipse 89" cx="2" cy="2" r="2" transform="translate(635.788 -10292.456)" fill="#f2f2f2"/><path data-name="Rectangle 306" fill="#f2f2f2" d="M404.788-10113.456h2v1h-2z"/><path data-name="Rectangle 320" fill="#f2f2f2" d="M278.788-10207.456h2v1h-2z"/><path data-name="Rectangle 307" fill="#f2f2f2" d="M548.788-9999.456h2v1h-2z"/><path data-name="Rectangle 321" fill="#f2f2f2" d="M422.788-10093.456h2v1h-2z"/><path data-name="Rectangle 308" fill="#f2f2f2" d="M930.788-9955.456h2v1h-2z"/><path data-name="Rectangle 323" fill="#f2f2f2" d="M804.788-10049.456h2v1h-2z"/><path data-name="Rectangle 309" fill="#f2f2f2" d="M811.788-10108.456h2v1h-2z"/><path data-name="Rectangle 322" fill="#f2f2f2" d="M685.788-10202.456h2v1h-2z"/><path data-name="Path 263" d="M1033.55-9851.064s-.915-3.027-2.886-4.083" fill="#ff6584"/><path data-name="Path 272" d="M907.55-9945.064s-.915-3.027-2.886-4.083" fill="#ff6584"/><path data-name="Path 265" d="M1056.55-9845.064s-.915-3.027-2.886-4.083" fill="#ff6584"/><path data-name="Path 273" d="M930.55-9939.064s-.915-3.027-2.886-4.083" fill="#ff6584"/><path data-name="Path 266" d="M1050.55-9827.064s-.915-3.027-2.886-4.083" fill="#ff6584"/><path data-name="Path 274" d="M924.55-9921.064s-.915-3.027-2.886-4.083" fill="#ff6584"/></g><g data-name="Group 3528" fill="#f2f2f2"><path data-name="Union 4" d="M1219.592 390.911a38.746 38.746 0 01-15.992 3.378 38.027 38.027 0 01-19.575-5.256A39.361 39.361 0 011171.64 391c-18.462 0-33.428-12.433-33.428-27.769 0-13.031 10.8-23.958 25.361-26.955q-.014-.406-.014-.814c0-15.336 14.966-27.769 33.428-27.769a40.318 40.318 0 015.817.419c6.021-7.312 16.142-12.112 27.608-12.112 11.551 0 21.734 4.867 27.739 12.268 11.739 2.015 21.228 9.145 24.941 18.46q.838-.035 1.687-.035c18.466-.001 33.433 12.432 33.433 27.769s-14.966 27.769-33.428 27.769c0 15.337-14.966 27.769-33.428 27.769-14.815 0-27.377-8-31.764-19.089z" style="mix-blend-mode:soft-light;isolation:isolate"/><path data-name="Union 5" d="M942.695 252.3a13.532 13.532 0 01-5.6 1.185 13.284 13.284 0 01-6.851-1.844 13.745 13.745 0 01-4.335.691c-6.459.002-11.697-4.361-11.697-9.742 0-4.571 3.778-8.406 8.876-9.458v-.286c0-5.381 5.238-9.744 11.7-9.744a14.076 14.076 0 012.036.147 12.477 12.477 0 019.659-4.249 12.46 12.46 0 019.709 4.3 11.232 11.232 0 018.729 6.477q.293-.012.591-.012c6.462 0 11.7 4.362 11.7 9.744s-5.238 9.744-11.7 9.744c0 5.385-5.239 9.747-11.7 9.747-5.185 0-9.582-2.808-11.117-6.7z" style="mix-blend-mode:soft-light;isolation:isolate"/><g data-name="Group 80" transform="translate(-12.815 9274)" style="mix-blend-mode:soft-light;isolation:isolate"><rect data-name="Rectangle 302" width="61.594" height="6.651" rx="3.326" transform="translate(1696.983 -8978.246)"/><rect data-name="Rectangle 303" width="61.594" height="6.651" rx="3.326" transform="translate(1710.779 -8972.579)"/><rect data-name="Rectangle 304" width="61.594" height="6.651" rx="3.326" transform="translate(1687.373 -8967.651)"/></g><g data-name="Group 79" transform="translate(-174.788 9203)" style="mix-blend-mode:soft-light;isolation:isolate"><rect data-name="Rectangle 302" width="75.175" height="8.118" rx="4.059" transform="translate(1699.102 -8978.246)"/><rect data-name="Rectangle 303" width="75.175" height="8.118" rx="4.059" transform="translate(1715.941 -8971.33)"/><rect data-name="Rectangle 304" width="75.175" height="8.118" rx="4.059" transform="translate(1687.373 -8965.315)"/></g></g><g data-name="Group 87" transform="translate(-713.788 9086)"><path data-name="Path 230" d="M2350.711-8592.314l-5.946-33.209 18.831-.919v34.128h12.889l12.885-36.675" fill="none" stroke="#b3b3b3" stroke-miterlimit="10"/><rect data-name="Rectangle 294" width="51.54" height="36.675" rx="18.338" transform="translate(2337.825 -8595.786)" fill="#6c63ff"/><path data-name="Path 231" d="M2371.528-8595.786h-14.865a18.393 18.393 0 00-18.338 18.338 10.205 10.205 0 00.049 1.234 18.393 18.393 0 0118.288-17.1h14.865a18.393 18.393 0 0118.288 17.1c0-.407.049-.82.049-1.234a18.393 18.393 0 00-18.338-18.338z" opacity=".05"/><path data-name="Path 232" d="M748.934 410.638l-4.867-3.818-11.767 14.908-6.328-4.9-3.96 5.033 9.2 7.032 2.282 1.832z" transform="translate(1626.536 -8995.501)" fill="url(#b)"/><path data-name="Path 233" d="M2375.111-8584.955l-4.416-3.38-11.688 15.247-6.495-4.984-3.386 4.416 8.7 6.662 2.233 1.672z" fill="#69f0ae"/><path data-name="Path 190" d="M938.9 280.822c0 42.35-35.38 76.682-73.049 76.682s-76.275-34.332-76.275-76.682 38.606-76.682 76.281-76.682 73.043 34.332 73.043 76.682z" transform="translate(1502.879 -8975.858)" fill="url(#c)"/><path data-name="Path 191" d="M2438.285-8695.037c0 40.37-33.721 73.092-69.632 73.092s-72.709-32.722-72.709-73.092 36.811-73.067 72.716-73.067 69.625 32.691 69.625 73.067z" fill="#6c63ff"/><path data-name="Rectangle 301" fill="#6c63ff" d="M2357.501-8619.379h16.154v5.644h-16.154z"/><g data-name="Group 73"><path data-name="Path 182" d="M2368.66-8768.382c-.857 0-1.709 0-2.566.062 34.93 1.511 67.066 33.622 67.066 73.03s-32.136 71.519-67.041 73.03a59.61 59.61 0 002.566.062c35.9 0 69.631-32.722 69.631-73.092s-33.752-73.092-69.656-73.092z" opacity=".2"/></g><g data-name="Group 66"><path data-name="Path 183" d="M2300.058-8695.037c0-39.79 35.775-72.167 71.167-73.067h-1.536c-35.9 0-72.709 32.722-72.709 73.092s36.8 73.092 72.7 73.092h1.536c-35.402-.963-71.158-33.308-71.158-73.117z" fill="#fff" opacity=".2"/></g><path data-name="Rectangle 295" fill="#6c63ff" d="M2343.142-8632.203h46.421v15.13h-46.421z"/><path data-name="Path 222" d="M2343.142-8762.805s-55.136 63.025 0 135.537l18.208-.062s-50.264-59.9-2.307-140.015l-8.962 2.042z" fill="#fff" opacity=".2"/><path data-name="Path 235" d="M2391.099-8763.786s55.136 63.988 0 136.5l-18.208-.062s50.264-60.447 2.307-140.54l8.974 1.795z" fill="#fff" opacity=".2"/></g></g></svg>