<svg xmlns="http://www.w3.org/2000/svg" xmlns:xlink="http://www.w3.org/1999/xlink" width="1952.761" height="1080" viewBox="0 0 1952.761 1080">
  <defs>
    <linearGradient id="linear-gradient" x1="0.032" y1="0.043" x2="0.418" y2="0.722" gradientUnits="objectBoundingBox">
      <stop offset="0" stop-color="#080647"/>
      <stop offset="1" stop-color="#261d84"/>
    </linearGradient>
    <linearGradient id="linear-gradient-2" x1="4.134" y1="3.41" x2="4.134" y2="2.409" gradientUnits="objectBoundingBox">
      <stop offset="0" stop-opacity="0.122"/>
      <stop offset="0.55" stop-opacity="0.09"/>
      <stop offset="1" stop-opacity="0.02"/>
    </linearGradient>
    <linearGradient id="linear-gradient-3" x1="0.5" y1="1" x2="0.5" gradientUnits="objectBoundingBox">
      <stop offset="0" stop-color="gray" stop-opacity="0.251"/>
      <stop offset="0.54" stop-color="gray" stop-opacity="0.122"/>
      <stop offset="1" stop-color="gray" stop-opacity="0.102"/>
    </linearGradient>
  </defs>
  <g id="Group_3529" data-name="Group 3529" transform="translate(17.212 2)">
    <g id="Group_3527" data-name="Group 3527">
      <g id="Rectangle_17444" data-name="Rectangle 17444" transform="translate(0 -2)" fill="#0d0151" stroke="#707070" stroke-width="1">
        <rect width="1920" height="1080" stroke="none"/>
        <rect x="0.5" y="0.5" width="1919" height="1079" fill="none"/>
      </g>
      <g id="Rectangle_282" data-name="Rectangle 282" transform="translate(0 -2)" stroke="#707070" stroke-width="1" fill="url(#linear-gradient)">
        <rect width="1920" height="1080" stroke="none"/>
        <rect x="0.5" y="0.5" width="1919" height="1079" fill="none"/>
      </g>
    </g>
    <g id="Group_81" data-name="Group 81" transform="translate(718 10457)">
      <circle id="Ellipse_77" data-name="Ellipse 77" cx="5" cy="5" r="5" transform="translate(609.788 -10201.456)" fill="#f2f2f2"/>
      <circle id="Ellipse_85" data-name="Ellipse 85" cx="5" cy="5" r="5" transform="translate(486.788 -10320.456)" fill="#f2f2f2"/>
      <circle id="Ellipse_78" data-name="Ellipse 78" cx="2" cy="2" r="2" transform="translate(455.788 -10033.456)" fill="#f2f2f2"/>
      <circle id="Ellipse_86" data-name="Ellipse 86" cx="2" cy="2" r="2" transform="translate(329.788 -10127.456)" fill="#f2f2f2"/>
      <circle id="Ellipse_79" data-name="Ellipse 79" cx="2" cy="2" r="2" transform="translate(750.788 -9939.456)" fill="#f2f2f2"/>
      <circle id="Ellipse_90" data-name="Ellipse 90" cx="2" cy="2" r="2" transform="translate(624.788 -10033.456)" fill="#f2f2f2"/>
      <circle id="Ellipse_81" data-name="Ellipse 81" cx="2" cy="2" r="2" transform="translate(1009.788 -10035.456)" fill="#f2f2f2"/>
      <circle id="Ellipse_91" data-name="Ellipse 91" cx="2" cy="2" r="2" transform="translate(883.788 -10129.456)" fill="#f2f2f2"/>
      <circle id="Ellipse_82" data-name="Ellipse 82" cx="2" cy="2" r="2" transform="translate(367.788 -10014.456)" fill="#f2f2f2"/>
      <circle id="Ellipse_88" data-name="Ellipse 88" cx="2" cy="2" r="2" transform="translate(241.788 -10108.456)" fill="#f2f2f2"/>
      <circle id="Ellipse_83" data-name="Ellipse 83" cx="2" cy="2" r="2" transform="translate(695.788 -10054.456)" fill="#f2f2f2"/>
      <circle id="Ellipse_87" data-name="Ellipse 87" cx="2" cy="2" r="2" transform="translate(569.788 -10148.456)" fill="#f2f2f2"/>
      <circle id="Ellipse_84" data-name="Ellipse 84" cx="2" cy="2" r="2" transform="translate(761.788 -10198.456)" fill="#f2f2f2"/>
      <circle id="Ellipse_89" data-name="Ellipse 89" cx="2" cy="2" r="2" transform="translate(635.788 -10292.456)" fill="#f2f2f2"/>
      <rect id="Rectangle_306" data-name="Rectangle 306" width="2" height="1" transform="translate(404.788 -10113.456)" fill="#f2f2f2"/>
      <rect id="Rectangle_320" data-name="Rectangle 320" width="2" height="1" transform="translate(278.788 -10207.456)" fill="#f2f2f2"/>
      <rect id="Rectangle_307" data-name="Rectangle 307" width="2" height="1" transform="translate(548.788 -9999.456)" fill="#f2f2f2"/>
      <rect id="Rectangle_321" data-name="Rectangle 321" width="2" height="1" transform="translate(422.788 -10093.456)" fill="#f2f2f2"/>
      <rect id="Rectangle_308" data-name="Rectangle 308" width="2" height="1" transform="translate(930.788 -9955.456)" fill="#f2f2f2"/>
      <rect id="Rectangle_323" data-name="Rectangle 323" width="2" height="1" transform="translate(804.788 -10049.456)" fill="#f2f2f2"/>
      <rect id="Rectangle_309" data-name="Rectangle 309" width="2" height="1" transform="translate(811.788 -10108.456)" fill="#f2f2f2"/>
      <rect id="Rectangle_322" data-name="Rectangle 322" width="2" height="1" transform="translate(685.788 -10202.456)" fill="#f2f2f2"/>
      <path id="Path_263" data-name="Path 263" d="M992.575,596.436s-.915-3.027-2.886-4.083" transform="translate(40.975 -10447.5)" fill="#ff6584"/>
      <path id="Path_272" data-name="Path 272" d="M992.575,596.436s-.915-3.027-2.886-4.083" transform="translate(-85.025 -10541.5)" fill="#ff6584"/>
      <path id="Path_265" data-name="Path 265" d="M1015.575,602.436s-.915-3.027-2.886-4.083" transform="translate(40.975 -10447.5)" fill="#ff6584"/>
      <path id="Path_273" data-name="Path 273" d="M1015.575,602.436s-.915-3.027-2.886-4.083" transform="translate(-85.025 -10541.5)" fill="#ff6584"/>
      <path id="Path_266" data-name="Path 266" d="M1009.575,620.436s-.915-3.027-2.886-4.083" transform="translate(40.975 -10447.5)" fill="#ff6584"/>
      <path id="Path_274" data-name="Path 274" d="M1009.575,620.436s-.915-3.027-2.886-4.083" transform="translate(-85.025 -10541.5)" fill="#ff6584"/>
    </g>
    <g id="Group_83" data-name="Group 83" transform="translate(-259 10364)">
      <circle id="Ellipse_77-2" data-name="Ellipse 77" cx="5" cy="5" r="5" transform="translate(609.788 -10201.456)" fill="#f2f2f2"/>
      <circle id="Ellipse_85-2" data-name="Ellipse 85" cx="5" cy="5" r="5" transform="translate(486.788 -10320.456)" fill="#f2f2f2"/>
      <circle id="Ellipse_78-2" data-name="Ellipse 78" cx="2" cy="2" r="2" transform="translate(455.788 -10033.456)" fill="#f2f2f2"/>
      <circle id="Ellipse_86-2" data-name="Ellipse 86" cx="2" cy="2" r="2" transform="translate(329.788 -10127.456)" fill="#f2f2f2"/>
      <circle id="Ellipse_79-2" data-name="Ellipse 79" cx="2" cy="2" r="2" transform="translate(750.788 -9939.456)" fill="#f2f2f2"/>
      <circle id="Ellipse_90-2" data-name="Ellipse 90" cx="2" cy="2" r="2" transform="translate(624.788 -10033.456)" fill="#f2f2f2"/>
      <circle id="Ellipse_81-2" data-name="Ellipse 81" cx="2" cy="2" r="2" transform="translate(1009.788 -10035.456)" fill="#f2f2f2"/>
      <circle id="Ellipse_91-2" data-name="Ellipse 91" cx="2" cy="2" r="2" transform="translate(883.788 -10129.456)" fill="#f2f2f2"/>
      <circle id="Ellipse_82-2" data-name="Ellipse 82" cx="2" cy="2" r="2" transform="translate(367.788 -10014.456)" fill="#f2f2f2"/>
      <circle id="Ellipse_88-2" data-name="Ellipse 88" cx="2" cy="2" r="2" transform="translate(241.788 -10108.456)" fill="#f2f2f2"/>
      <circle id="Ellipse_83-2" data-name="Ellipse 83" cx="2" cy="2" r="2" transform="translate(695.788 -10054.456)" fill="#f2f2f2"/>
      <circle id="Ellipse_87-2" data-name="Ellipse 87" cx="2" cy="2" r="2" transform="translate(569.788 -10148.456)" fill="#f2f2f2"/>
      <circle id="Ellipse_84-2" data-name="Ellipse 84" cx="2" cy="2" r="2" transform="translate(761.788 -10198.456)" fill="#f2f2f2"/>
      <circle id="Ellipse_89-2" data-name="Ellipse 89" cx="2" cy="2" r="2" transform="translate(635.788 -10292.456)" fill="#f2f2f2"/>
      <rect id="Rectangle_306-2" data-name="Rectangle 306" width="2" height="1" transform="translate(404.788 -10113.456)" fill="#f2f2f2"/>
      <rect id="Rectangle_320-2" data-name="Rectangle 320" width="2" height="1" transform="translate(278.788 -10207.456)" fill="#f2f2f2"/>
      <rect id="Rectangle_307-2" data-name="Rectangle 307" width="2" height="1" transform="translate(548.788 -9999.456)" fill="#f2f2f2"/>
      <rect id="Rectangle_321-2" data-name="Rectangle 321" width="2" height="1" transform="translate(422.788 -10093.456)" fill="#f2f2f2"/>
      <rect id="Rectangle_308-2" data-name="Rectangle 308" width="2" height="1" transform="translate(930.788 -9955.456)" fill="#f2f2f2"/>
      <rect id="Rectangle_323-2" data-name="Rectangle 323" width="2" height="1" transform="translate(804.788 -10049.456)" fill="#f2f2f2"/>
      <rect id="Rectangle_309-2" data-name="Rectangle 309" width="2" height="1" transform="translate(811.788 -10108.456)" fill="#f2f2f2"/>
      <rect id="Rectangle_322-2" data-name="Rectangle 322" width="2" height="1" transform="translate(685.788 -10202.456)" fill="#f2f2f2"/>
      <path id="Path_263-2" data-name="Path 263" d="M992.575,596.436s-.915-3.027-2.886-4.083" transform="translate(40.975 -10447.5)" fill="#ff6584"/>
      <path id="Path_272-2" data-name="Path 272" d="M992.575,596.436s-.915-3.027-2.886-4.083" transform="translate(-85.025 -10541.5)" fill="#ff6584"/>
      <path id="Path_265-2" data-name="Path 265" d="M1015.575,602.436s-.915-3.027-2.886-4.083" transform="translate(40.975 -10447.5)" fill="#ff6584"/>
      <path id="Path_273-2" data-name="Path 273" d="M1015.575,602.436s-.915-3.027-2.886-4.083" transform="translate(-85.025 -10541.5)" fill="#ff6584"/>
      <path id="Path_266-2" data-name="Path 266" d="M1009.575,620.436s-.915-3.027-2.886-4.083" transform="translate(40.975 -10447.5)" fill="#ff6584"/>
      <path id="Path_274-2" data-name="Path 274" d="M1009.575,620.436s-.915-3.027-2.886-4.083" transform="translate(-85.025 -10541.5)" fill="#ff6584"/>
    </g>
    <g id="Group_82" data-name="Group 82" transform="translate(879 10676)">
      <circle id="Ellipse_77-3" data-name="Ellipse 77" cx="5" cy="5" r="5" transform="translate(609.788 -10201.456)" fill="#f2f2f2"/>
      <circle id="Ellipse_85-3" data-name="Ellipse 85" cx="5" cy="5" r="5" transform="translate(483.788 -10295.456)" fill="#f2f2f2"/>
      <circle id="Ellipse_78-3" data-name="Ellipse 78" cx="2" cy="2" r="2" transform="translate(455.788 -10033.456)" fill="#f2f2f2"/>
      <circle id="Ellipse_86-3" data-name="Ellipse 86" cx="2" cy="2" r="2" transform="translate(329.788 -10127.456)" fill="#f2f2f2"/>
      <circle id="Ellipse_79-3" data-name="Ellipse 79" cx="2" cy="2" r="2" transform="translate(750.788 -9939.456)" fill="#f2f2f2"/>
      <circle id="Ellipse_90-3" data-name="Ellipse 90" cx="2" cy="2" r="2" transform="translate(624.788 -10033.456)" fill="#f2f2f2"/>
      <circle id="Ellipse_81-3" data-name="Ellipse 81" cx="2" cy="2" r="2" transform="translate(1009.788 -10035.456)" fill="#f2f2f2"/>
      <circle id="Ellipse_91-3" data-name="Ellipse 91" cx="2" cy="2" r="2" transform="translate(883.788 -10129.456)" fill="#f2f2f2"/>
      <circle id="Ellipse_82-3" data-name="Ellipse 82" cx="2" cy="2" r="2" transform="translate(367.788 -10014.456)" fill="#f2f2f2"/>
      <circle id="Ellipse_88-3" data-name="Ellipse 88" cx="2" cy="2" r="2" transform="translate(241.788 -10108.456)" fill="#f2f2f2"/>
      <circle id="Ellipse_83-3" data-name="Ellipse 83" cx="2" cy="2" r="2" transform="translate(695.788 -10054.456)" fill="#f2f2f2"/>
      <circle id="Ellipse_87-3" data-name="Ellipse 87" cx="2" cy="2" r="2" transform="translate(569.788 -10148.456)" fill="#f2f2f2"/>
      <circle id="Ellipse_84-3" data-name="Ellipse 84" cx="2" cy="2" r="2" transform="translate(761.788 -10198.456)" fill="#f2f2f2"/>
      <circle id="Ellipse_89-3" data-name="Ellipse 89" cx="2" cy="2" r="2" transform="translate(635.788 -10292.456)" fill="#f2f2f2"/>
      <rect id="Rectangle_306-3" data-name="Rectangle 306" width="2" height="1" transform="translate(404.788 -10113.456)" fill="#f2f2f2"/>
      <rect id="Rectangle_320-3" data-name="Rectangle 320" width="2" height="1" transform="translate(278.788 -10207.456)" fill="#f2f2f2"/>
      <rect id="Rectangle_307-3" data-name="Rectangle 307" width="2" height="1" transform="translate(548.788 -9999.456)" fill="#f2f2f2"/>
      <rect id="Rectangle_321-3" data-name="Rectangle 321" width="2" height="1" transform="translate(422.788 -10093.456)" fill="#f2f2f2"/>
      <rect id="Rectangle_308-3" data-name="Rectangle 308" width="2" height="1" transform="translate(930.788 -9955.456)" fill="#f2f2f2"/>
      <rect id="Rectangle_323-3" data-name="Rectangle 323" width="2" height="1" transform="translate(804.788 -10049.456)" fill="#f2f2f2"/>
      <rect id="Rectangle_309-3" data-name="Rectangle 309" width="2" height="1" transform="translate(811.788 -10108.456)" fill="#f2f2f2"/>
      <rect id="Rectangle_322-3" data-name="Rectangle 322" width="2" height="1" transform="translate(685.788 -10202.456)" fill="#f2f2f2"/>
      <path id="Path_263-3" data-name="Path 263" d="M992.575,596.436s-.915-3.027-2.886-4.083" transform="translate(40.975 -10447.5)" fill="#ff6584"/>
      <path id="Path_272-3" data-name="Path 272" d="M992.575,596.436s-.915-3.027-2.886-4.083" transform="translate(-85.025 -10541.5)" fill="#ff6584"/>
      <path id="Path_265-3" data-name="Path 265" d="M1015.575,602.436s-.915-3.027-2.886-4.083" transform="translate(40.975 -10447.5)" fill="#ff6584"/>
      <path id="Path_273-3" data-name="Path 273" d="M1015.575,602.436s-.915-3.027-2.886-4.083" transform="translate(-85.025 -10541.5)" fill="#ff6584"/>
      <path id="Path_266-3" data-name="Path 266" d="M1009.575,620.436s-.915-3.027-2.886-4.083" transform="translate(40.975 -10447.5)" fill="#ff6584"/>
      <path id="Path_274-3" data-name="Path 274" d="M1009.575,620.436s-.915-3.027-2.886-4.083" transform="translate(-85.025 -10541.5)" fill="#ff6584"/>
    </g>
    <g id="Group_3528" data-name="Group 3528">
      <path id="Union_4" data-name="Union 4" d="M81.38,94.911a38.746,38.746,0,0,1-15.992,3.378,38.027,38.027,0,0,1-19.575-5.256A39.361,39.361,0,0,1,33.428,95C14.966,95,0,82.567,0,67.231,0,54.2,10.8,43.273,25.361,40.276q-.014-.406-.014-.814c0-15.336,14.966-27.769,33.428-27.769a40.318,40.318,0,0,1,5.817.419C70.613,4.8,80.734,0,92.2,0c11.551,0,21.734,4.867,27.739,12.268,11.739,2.015,21.228,9.145,24.941,18.46q.838-.035,1.687-.035C165.033,30.692,180,43.125,180,58.462s-14.966,27.769-33.428,27.769c0,15.337-14.966,27.769-33.428,27.769C98.329,114,85.767,106,81.38,94.911Z" transform="translate(1121 294)" fill="#f2f2f2" style="mix-blend-mode: soft-light;isolation: isolate"/>
      <path id="Union_5" data-name="Union 5" d="M28.483,33.3a13.532,13.532,0,0,1-5.6,1.185,13.284,13.284,0,0,1-6.851-1.844,13.745,13.745,0,0,1-4.335.691C5.238,33.334,0,28.971,0,23.59c0-4.571,3.778-8.406,8.876-9.458q0-.142,0-.286c0-5.381,5.238-9.744,11.7-9.744a14.076,14.076,0,0,1,2.036.147A12.477,12.477,0,0,1,32.271,0,12.46,12.46,0,0,1,41.98,4.3a11.232,11.232,0,0,1,8.729,6.477q.293-.012.591-.012c6.462,0,11.7,4.362,11.7,9.744s-5.238,9.744-11.7,9.744C51.3,35.638,46.061,40,39.6,40,34.415,40,30.018,37.192,28.483,33.3Z" transform="translate(897 217)" fill="#f2f2f2" style="mix-blend-mode: soft-light;isolation: isolate"/>
      <g id="Group_80" data-name="Group 80" transform="translate(-30.027 9272)" style="mix-blend-mode: soft-light;isolation: isolate">
        <rect id="Rectangle_302" data-name="Rectangle 302" width="61.594" height="6.651" rx="3.326" transform="translate(1696.983 -8978.246)" fill="#f2f2f2"/>
        <rect id="Rectangle_303" data-name="Rectangle 303" width="61.594" height="6.651" rx="3.326" transform="translate(1710.779 -8972.579)" fill="#f2f2f2"/>
        <rect id="Rectangle_304" data-name="Rectangle 304" width="61.594" height="6.651" rx="3.326" transform="translate(1687.373 -8967.651)" fill="#f2f2f2"/>
      </g>
      <g id="Group_79" data-name="Group 79" transform="translate(-192 9201)" style="mix-blend-mode: soft-light;isolation: isolate">
        <rect id="Rectangle_302-2" data-name="Rectangle 302" width="75.175" height="8.118" rx="4.059" transform="translate(1699.102 -8978.246)" fill="#f2f2f2"/>
        <rect id="Rectangle_303-2" data-name="Rectangle 303" width="75.175" height="8.118" rx="4.059" transform="translate(1715.941 -8971.33)" fill="#f2f2f2"/>
        <rect id="Rectangle_304-2" data-name="Rectangle 304" width="75.175" height="8.118" rx="4.059" transform="translate(1687.373 -8965.315)" fill="#f2f2f2"/>
      </g>
    </g>
    <g id="Group_87" data-name="Group 87" transform="translate(-731 9084)">
      <path id="Path_230" data-name="Path 230" d="M721.826,378.145l-5.946-33.209,18.831-.919v34.128H747.6l12.885-36.675" transform="translate(1628.885 -8970.459)" fill="none" stroke="#b3b3b3" stroke-miterlimit="10" stroke-width="1"/>
      <rect id="Rectangle_294" data-name="Rectangle 294" width="51.54" height="36.675" rx="18.338" transform="translate(2337.825 -8595.786)" fill="#6c63ff"/>
      <path id="Path_231" data-name="Path 231" d="M897.143,489.37H882.278a18.393,18.393,0,0,0-18.338,18.338h0a10.205,10.205,0,0,0,.049,1.234,18.393,18.393,0,0,1,18.288-17.1h14.865a18.393,18.393,0,0,1,18.288,17.1c0-.407.049-.82.049-1.234h0a18.393,18.393,0,0,0-18.338-18.338Z" transform="translate(1474.385 -9085.156)" opacity="0.05"/>
      <path id="Path_232" data-name="Path 232" d="M748.934,410.638l-4.867-3.818L732.3,421.728l-6.328-4.9-3.96,5.033,9.2,7.032h0l2.282,1.832Z" transform="translate(1626.536 -8995.501)" fill="url(#linear-gradient-2)"/>
      <path id="Path_233" data-name="Path 233" d="M748.936,410.76l-4.416-3.38-11.688,15.247-6.495-4.984-3.386,4.416,8.7,6.662h0l2.233,1.672Z" transform="translate(1626.175 -8995.715)" fill="#69f0ae"/>
      <path id="Path_190" data-name="Path 190" d="M938.9,280.822c0,42.35-35.38,76.682-73.049,76.682s-76.275-34.332-76.275-76.682,38.606-76.682,76.281-76.682S938.9,238.472,938.9,280.822Z" transform="translate(1502.879 -8975.858)" fill="url(#linear-gradient-3)"/>
      <path id="Path_191" data-name="Path 191" d="M937.571,283.067c0,40.37-33.721,73.092-69.632,73.092s-72.709-32.722-72.709-73.092S832.041,210,867.946,210,937.571,242.691,937.571,283.067Z" transform="translate(1500.714 -8978.104)" fill="#6c63ff"/>
      <rect id="Rectangle_301" data-name="Rectangle 301" width="16.154" height="5.644" transform="translate(2357.501 -8619.379)" fill="#6c63ff"/>
      <g id="Group_73" data-name="Group 73" transform="translate(2366.094 -8768.382)" opacity="0.2">
        <path id="Path_182" data-name="Path 182" d="M911.526,209.55c-.857,0-1.709,0-2.566.062,34.93,1.511,67.066,33.622,67.066,73.03s-32.136,71.519-67.041,73.03c.857.037,1.715.062,2.566.062,35.9,0,69.631-32.722,69.631-73.092S947.43,209.55,911.526,209.55Z" transform="translate(-908.96 -209.55)"/>
      </g>
      <g id="Group_66" data-name="Group 66" transform="translate(2296.98 -8768.104)" opacity="0.2">
        <path id="Path_183" data-name="Path 183" d="M799.988,283.067c0-39.79,35.775-72.167,71.167-73.067h-1.536c-35.9,0-72.709,32.722-72.709,73.092s36.8,73.092,72.7,73.092h1.536C835.744,355.221,799.988,322.876,799.988,283.067Z" transform="translate(-796.91 -210)" fill="#fff"/>
      </g>
      <rect id="Rectangle_295" data-name="Rectangle 295" width="46.421" height="15.13" transform="translate(2343.142 -8632.203)" fill="#6c63ff"/>
      <path id="Path_222" data-name="Path 222" d="M856.526,215.77s-55.136,63.025,0,135.537l18.208-.062s-50.264-59.9-2.307-140.015l-8.962,2.042Z" transform="translate(1486.616 -8978.575)" fill="#fff" opacity="0.2"/>
      <path id="Path_235" data-name="Path 235" d="M938.188,214.452s55.136,63.988,0,136.5l-18.208-.062s50.264-60.447,2.307-140.54l8.974,1.795Z" transform="translate(1452.911 -8978.238)" fill="#fff" opacity="0.2"/>
    </g>
  </g>
</svg>
